<?xml version="1.0" encoding="utf-8"?>
<!-- Generator: Adobe Illustrator 19.2.1, SVG Export Plug-In . SVG Version: 6.00 Build 0)  -->
<svg version="1.1" id="layer" xmlns="http://www.w3.org/2000/svg" xmlns:xlink="http://www.w3.org/1999/xlink" x="0px" y="0px"
	 viewBox="0 0 652 652" style="enable-background:new 0 0 652 652;" xml:space="preserve">
<style type="text/css">
	.st0{fill:#94C51C;}
	.st1{fill:#002954;}
</style>
<g>
	<path class="st0" d="M328.9,249.5c138.2-14.5,253.6,5.9,257.7,45.5c2.4,22.5-31.7,46.4-86.9,65.5c75.6-20.5,124.8-49,122-75.4
		c-4.2-39.6-123.6-59.6-266.9-44.5c-81.9,8.6-149.3,25.3-195.1,46.7C203.6,269.7,260.4,256.7,328.9,249.5"/>
	<path class="st0" d="M314.7,392.4C176.6,406.9,61.2,386.5,57,346.9c-2.4-22.5,31.7-46.4,86.9-65.5c-75.6,20.5-124.8,49-122,75.4
		c4.2,39.6,123.6,59.6,266.9,44.5c81.9-8.6,149.3-25.3,195.1-46.7C440,372.2,383.3,385.2,314.7,392.4"/>
	<path class="st1" d="M100.3,335.7h2.3c3.4,0,8.3-0.1,8.3-4.7c0-4.7-5.3-4.7-8.6-4.7h-2V335.7z M102.2,314.4c3,0,6.4-0.3,6.4-4.2
		c0-4.2-3.8-3.9-6.8-3.9h-1.4v8.1H102.2z M81.3,292.6h24c11,0,22.2,2.6,22.2,15.7c0,4.9-2.5,9.8-7.4,11.4v0.5
		c6.2,2.2,10.1,6.7,10.1,13.4c0,11.6-10.8,15.6-20.7,15.6h-28V292.6z"/>
	<path class="st1" d="M163.4,328.8l-2.4-10c-0.6-2.4-1-4.9-1.3-7.3h-0.7l-3.8,17.3H163.4z M149.8,349.3H128l19.7-56.6h22.8
		l20.2,56.6h-21.8l-1.9-7.1h-15.5L149.8,349.3z"/>
	<path class="st1" d="M230.2,315.6c-3.3-3.1-7.4-5.7-12.1-5.7c-6.2,0-11.2,4.9-11.2,11c0,6.2,5.3,11,11.5,11c4.7,0,8.5-2,11.8-5.3
		l-0.6,21.2c-3.3,1.6-11,2.2-14.6,2.2c-16.1,0-28.8-12.5-28.8-28.7c0-16.5,13-29.8,29.6-29.8c4.7,0,9.5,0.8,13.8,2.3L230.2,315.6z"
		/>
	<polygon class="st1" points="234.3,292.6 254.2,292.6 254.2,311.7 266.8,311.7 266.8,292.6 286.6,292.6 286.6,349.3 266.8,349.3 
		266.8,329.6 254.2,329.6 254.2,349.3 234.3,349.3 	"/>
	<path class="st1" d="M323.3,328.8l-2.4-10c-0.6-2.4-1-4.9-1.3-7.3h-0.7l-3.8,17.3H323.3z M309.7,349.3h-21.8l19.7-56.6h22.8
		l20.2,56.6h-21.8l-1.9-7.1h-15.5L309.7,349.3z"/>
	<path class="st1" d="M372,317.7h1.4c3.4,0,6.8-0.5,6.8-4.7c0-4.4-3.1-4.9-6.6-4.9H372V317.7z M351.9,292.6h24.9
		c12.8,0,23.6,5.4,23.6,19.7c0,8.6-3.3,12.2-11,14.7v0.5c1.1,0.8,2.3,1.7,3.5,3.4l12.3,18.4h-23.7l-9-18.2H372v18.2h-20.1V292.6z"/>
	<path class="st1" d="M439.1,328.8l-2.4-10c-0.6-2.4-1-4.9-1.3-7.3h-0.7l-3.8,17.3H439.1z M425.5,349.3h-21.8l19.7-56.6h22.8
		l20.2,56.6h-21.8l-1.9-7.1h-15.5L425.5,349.3z"/>
	<path class="st1" d="M506,315.6c-3.3-3.1-7.4-5.7-12.1-5.7c-6.2,0-11.2,4.9-11.2,11c0,6.2,5.3,11,11.5,11c4.7,0,8.5-2,11.8-5.3
		l-0.6,21.2c-3.3,1.6-11,2.2-14.6,2.2c-16.1,0-28.8-12.5-28.8-28.7c0-16.5,13-29.8,29.6-29.8c4.7,0,9.5,0.8,13.8,2.3L506,315.6z"/>
	<polygon class="st1" points="510.1,292.6 529.9,292.6 529.9,311.7 542.6,311.7 542.6,292.6 562.4,292.6 562.4,349.3 542.6,349.3 
		542.6,329.6 529.9,329.6 529.9,349.3 510.1,349.3 	"/>
	<path class="st1" d="M575.9,343.8c0.6,0,1.2,0,1.2-0.7c0-0.5-0.6-0.5-1.2-0.5h-1.4v1.2H575.9z M578.3,347.5h-1.5l-1.4-2.6h-1v2.6
		h-1.3v-6.1h2.9c1.3,0,2.1,0.4,2.1,1.9c0,1-0.6,1.6-1.4,1.7L578.3,347.5z M579.9,344.5c0-2.6-1.8-4.3-4.3-4.3
		c-2.5,0-4.3,1.7-4.3,4.3c0,2.6,1.8,4.3,4.3,4.3C578.1,348.8,579.9,347.1,579.9,344.5 M569.8,344.5c0-3.2,2.6-5.8,5.8-5.8
		c3.2,0,5.8,2.6,5.8,5.8c0,3.2-2.6,5.8-5.8,5.8C572.3,350.3,569.8,347.7,569.8,344.5"/>
</g>
</svg>
